<svg xmlns="http://www.w3.org/2000/svg" viewBox="0 0 900 700">
  <defs>
    <linearGradient id="bg" x1="0" y1="0" x2="1" y2="1">
      <stop offset="0%" stop-color="#e0e7ee" />
      <stop offset="100%" stop-color="#bccad8" />
    </linearGradient>
    <linearGradient id="shoe" x1="0" y1="0" x2="1" y2="1">
      <stop offset="0%" stop-color="#f3f6fb" />
      <stop offset="100%" stop-color="#d7e2f2" />
    </linearGradient>
  </defs>
  <rect width="900" height="700" fill="url(#bg)" />
  <g transform="translate(84 176)">
    <path d="M118 224 C184 148 282 126 396 152 L520 178 C582 190 630 224 648 276 L116 276 C100 260 100 242 118 224 Z" fill="url(#shoe)" />
    <path d="M220 156 C282 174 334 202 380 236" fill="none" stroke="#5b8ac7" stroke-width="18" stroke-linecap="round" />
    <path d="M168 220 H554" stroke="#aebed3" stroke-width="10" opacity="0.88" />
    <path d="M196 204 H316" stroke="#d5dfec" stroke-width="9" stroke-linecap="round" />
    <path d="M470 106 C522 142 600 168 686 178 C738 186 780 232 786 278 L492 278 C474 216 466 160 470 106 Z" fill="url(#shoe)" />
    <path d="M562 154 C612 172 654 202 684 236" fill="none" stroke="#e35d5d" stroke-width="18" stroke-linecap="round" />
    <path d="M528 202 H728" stroke="#aebed3" stroke-width="10" opacity="0.88" />
  </g>
</svg>
