<svg xmlns="http://www.w3.org/2000/svg" viewBox="0 0 900 700">
  <defs>
    <linearGradient id="bg" x1="0" y1="0" x2="1" y2="1">
      <stop offset="0%" stop-color="#e3dfdb" />
      <stop offset="100%" stop-color="#c9c1bc" />
    </linearGradient>
    <linearGradient id="jacket" x1="0" y1="0" x2="1" y2="1">
      <stop offset="0%" stop-color="#738092" />
      <stop offset="100%" stop-color="#4c5562" />
    </linearGradient>
  </defs>
  <rect width="900" height="700" fill="url(#bg)" />
  <g transform="translate(136 56)">
    <path d="M186 96 L280 24 H348 L442 96 L530 56 L628 180 L540 234 L494 158 L470 548 H158 L134 158 L88 234 L0 180 L98 56 Z" fill="url(#jacket)" />
    <path d="M280 24 L288 114 H340 L348 24" fill="#d7cdc2" />
    <path d="M310 116 V548" stroke="#d0d8df" stroke-width="12" opacity="0.7" />
    <path d="M208 238 H410" stroke="#8793a4" stroke-width="10" opacity="0.55" />
    <path d="M202 314 H418" stroke="#8793a4" stroke-width="10" opacity="0.45" />
    <path d="M196 392 H424" stroke="#8793a4" stroke-width="10" opacity="0.38" />
    <path d="M94 170 L50 236" stroke="#93a1b2" stroke-width="18" stroke-linecap="round" opacity="0.5" />
    <path d="M534 170 L578 236" stroke="#93a1b2" stroke-width="18" stroke-linecap="round" opacity="0.5" />
  </g>
</svg>
