<svg xmlns="http://www.w3.org/2000/svg" viewBox="0 0 900 700">
  <defs>
    <linearGradient id="bg" x1="0" y1="0" x2="1" y2="1">
      <stop offset="0%" stop-color="#dbe5f2" />
      <stop offset="100%" stop-color="#bccddd" />
    </linearGradient>
    <linearGradient id="denim" x1="0" y1="0" x2="1" y2="1">
      <stop offset="0%" stop-color="#4d79b5" />
      <stop offset="100%" stop-color="#244b83" />
    </linearGradient>
  </defs>
  <rect width="900" height="700" fill="url(#bg)" />
  <g transform="translate(214 48)">
    <path d="M160 42 H312 L340 190 L440 598 H308 L240 306 L172 598 H34 L132 190 Z" fill="url(#denim)" />
    <path d="M160 42 L124 182 H348 L312 42" fill="#6d93c6" opacity="0.95" />
    <path d="M196 98 H276" stroke="#c6d4e8" stroke-width="10" stroke-linecap="round" opacity="0.9" />
    <path d="M124 182 H348" stroke="#b5c9e0" stroke-width="10" stroke-linecap="round" opacity="0.76" />
    <path d="M222 82 L240 182" stroke="#dae3ef" stroke-width="8" stroke-linecap="round" opacity="0.85" />
    <path d="M100 286 C136 298 164 320 182 352" fill="none" stroke="#82a4d0" stroke-width="10" opacity="0.55" />
    <path d="M374 286 C338 298 310 320 292 352" fill="none" stroke="#82a4d0" stroke-width="10" opacity="0.55" />
    <path d="M120 520 H194" stroke="#8bb0de" stroke-width="8" opacity="0.42" />
    <path d="M280 520 H356" stroke="#8bb0de" stroke-width="8" opacity="0.42" />
  </g>
</svg>
